<?xml version="1.0" encoding="UTF-8"?>
<svg id="Layer_1" data-name="Layer 1" xmlns="http://www.w3.org/2000/svg" xmlns:xlink="http://www.w3.org/1999/xlink" viewBox="0 0 6.71 25">
  <defs>
    <style>
      .cls-1 {
        clip-path: url(#clippath);
      }

      .cls-2 {
        fill: none;
      }

      .cls-3 {
        fill: #ff0;
      }
    </style>
    <clipPath id="clippath">
      <rect class="cls-2" x="0" y="0" width="6.71" height="25"/>
    </clipPath>
  </defs>
  <g id="Group_5526" data-name="Group 5526">
    <g class="cls-1">
      <g id="Group_5525" data-name="Group 5525">
        <path id="Path_27808" data-name="Path 27808" class="cls-3" d="M0,3.35c0,1.85,1.5,3.35,3.35,3.35,1.85,0,3.35-1.5,3.35-3.35C6.71,1.5,5.21,0,3.35,0,1.5,0,0,1.5,0,3.35c0,0,0,0,0,0"/>
        <path id="Path_27809" data-name="Path 27809" class="cls-3" d="M0,21.65c0,1.85,1.5,3.35,3.35,3.35,1.85,0,3.35-1.5,3.35-3.35,0-1.85-1.5-3.35-3.35-3.35C1.5,18.29,0,19.79,0,21.64c0,0,0,0,0,0"/>
        <path id="Path_27810" data-name="Path 27810" class="cls-3" d="M0,12.5c0,1.85,1.5,3.35,3.35,3.36,1.85,0,3.35-1.5,3.36-3.35,0-1.85-1.5-3.35-3.35-3.36,0,0,0,0,0,0C1.5,9.15,0,10.65,0,12.5"/>
      </g>
    </g>
  </g>
</svg>